<svg width="1152" height="700" viewBox="0 0 1152 700" fill="none" xmlns="http://www.w3.org/2000/svg">
<g clip-path="url(#clip0)">
<rect width="1152" height="700" fill="white"/>
<circle cx="1012" cy="74" r="10" fill="#FEC5BB"/>
<circle cx="1054" cy="74" r="10" fill="#FEC5BB"/>
<circle cx="1096" cy="74" r="10" fill="#FEC5BB"/>
<circle cx="1138" cy="74" r="10" fill="#FEC5BB"/>
<circle cx="1012" cy="106" r="10" fill="#FEC5BB"/>
<circle cx="1054" cy="106" r="10" fill="#FEC5BB"/>
<circle cx="1096" cy="106" r="10" fill="#FEC5BB"/>
<circle cx="1138" cy="106" r="10" fill="#FEC5BB"/>
<circle cx="1012" cy="138" r="10" fill="#FEC5BB"/>
<circle cx="1054" cy="138" r="10" fill="#FEC5BB"/>
<circle cx="1096" cy="138" r="10" fill="#FEC5BB"/>
<circle cx="1138" cy="138" r="10" fill="#FEC5BB"/>
<circle cx="1012" cy="170" r="10" fill="#FEC5BB"/>
<circle cx="1054" cy="170" r="10" fill="#FEC5BB"/>
<circle cx="1096" cy="170" r="10" fill="#FEC5BB"/>
<circle cx="1138" cy="170" r="10" fill="#FEC5BB"/>
<circle cy="512" r="10" fill="#FEC5BB"/>
<circle cx="42" cy="512" r="10" fill="#FEC5BB"/>
<circle cx="84" cy="512" r="10" fill="#FEC5BB"/>
<circle cx="126" cy="512" r="10" fill="#FEC5BB"/>
<circle cy="544" r="10" fill="#FEC5BB"/>
<circle cx="42" cy="544" r="10" fill="#FEC5BB"/>
<circle cx="84" cy="544" r="10" fill="#FEC5BB"/>
<circle cx="126" cy="544" r="10" fill="#FEC5BB"/>
<circle cy="576" r="10" fill="#FEC5BB"/>
<circle cx="42" cy="576" r="10" fill="#FEC5BB"/>
<circle cx="84" cy="576" r="10" fill="#FEC5BB"/>
<circle cx="126" cy="576" r="10" fill="#FEC5BB"/>
<circle cy="608" r="10" fill="#FEC5BB"/>
<circle cx="42" cy="608" r="10" fill="#FEC5BB"/>
<circle cx="84" cy="608" r="10" fill="#FEC5BB"/>
<circle cx="126" cy="608" r="10" fill="#FEC5BB"/>
</g>
<defs>
<clipPath id="clip0">
<rect width="1152" height="700" fill="white"/>
</clipPath>
</defs>
</svg>
