<svg width="1600" height="3064" viewBox="0 0 1600 3064" fill="none" xmlns="http://www.w3.org/2000/svg">
<g clip-path="url(#clip0)">
<rect width="1600" height="3064" fill="#F8EDEB"/>
<circle cx="13" cy="837" r="10" fill="#FEC5BB"/>
<circle cx="55" cy="837" r="10" fill="#FEC5BB"/>
<circle cx="97" cy="837" r="10" fill="#FEC5BB"/>
<circle cx="13" cy="869" r="10" fill="#FEC5BB"/>
<circle cx="55" cy="869" r="10" fill="#FEC5BB"/>
<circle cx="97" cy="869" r="10" fill="#FEC5BB"/>
<circle cx="13" cy="901" r="10" fill="#FEC5BB"/>
<circle cx="55" cy="901" r="10" fill="#FEC5BB"/>
<circle cx="97" cy="901" r="10" fill="#FEC5BB"/>
<circle cx="13" cy="933" r="10" fill="#FEC5BB"/>
<circle cx="55" cy="933" r="10" fill="#FEC5BB"/>
<circle cx="97" cy="933" r="10" fill="#FEC5BB"/>
<circle cx="1498" cy="204" r="10" fill="#CAD6EC"/>
<circle cx="1540" cy="204" r="10" fill="#CAD6EC"/>
<circle cx="1582" cy="204" r="10" fill="#CAD6EC"/>
<circle cx="1498" cy="240" r="10" fill="#CAD6EC"/>
<circle cx="1540" cy="240" r="10" fill="#CAD6EC"/>
<circle cx="1582" cy="240" r="10" fill="#CAD6EC"/>
<circle cx="1498" cy="276" r="10" fill="#CAD6EC"/>
<circle cx="1540" cy="276" r="10" fill="#CAD6EC"/>
<circle cx="1582" cy="276" r="10" fill="#CAD6EC"/>
<circle cx="1498" cy="312" r="10" fill="#CAD6EC"/>
<circle cx="1540" cy="312" r="10" fill="#CAD6EC"/>
<circle cx="1582" cy="312" r="10" fill="#CAD6EC"/>
</g>
<defs>
<clipPath id="clip0">
<rect width="1600" height="3064" fill="white"/>
</clipPath>
</defs>
</svg>
